PathFileType	4	(X/Y/Z)	D:\TRACE\spotREDO_2-26-24\spot_justArm_Motion_2_5-v60.trc
DataRate	CameraRate	NumFrames	NumMarkers	Units	OrigDataRate	OrigDataStartFrame	OrigNumFrames
100.00	100.00	      17	9	mm	100.00	4376	      7000
Frame#	Time	front left toe			Front right toe			aft left toe			aft right toe			Arm			FL body			FR body			AL Body			AR Body			
		X1	Y1	Z1	X2	Y2	Z2	X3	Y3	Z3	X4	Y4	Z4	X5	Y5	Z5	X6	Y6	Z6	X7	Y7	Z7	X8	Y8	Z8	X9	Y9	Z9	

4376	43.750	-215.87469	30.03735	-112.67611	209.03636	32.42427	-118.09861	-250.82751	-13.58566	476.60873	176.24858	-7.82756	452.78113	-37.92846	631.56750	-805.38257	-73.97736	545.46014	-193.28410	81.81034	547.22620	-186.39761	-119.91019	553.07703	689.37360	27.84341	551.12970	697.55548	
4377	43.760	-215.71352	30.10051	-112.53175	209.04497	32.44350	-117.94704	-250.83429	-14.19391	476.76340	176.31487	-8.35216	452.97687	-39.68773	631.69238	-806.22919	-72.92319	546.00934	-192.91602	82.88316	548.06799	-186.14839	-119.20261	551.60712	689.47760	28.71303	550.01843	697.88544	
4378	43.770	-215.64394	30.24511	-112.47218	209.11427	32.54656	-117.79896	-250.79147	-14.77937	476.94586	176.45647	-9.07995	453.29929	-39.75222	632.15729	-805.81500	-71.95333	546.65991	-192.64131	84.02298	548.77985	-185.74651	-118.18594	550.47858	689.79620	29.77600	548.87158	698.53674	
4379	43.780	-215.61118	30.31023	-112.40810	209.95218	33.14206	-117.69048	-250.86821	-15.20150	477.08090	176.33879	-9.70916	453.59845	-39.55847	632.41888	-805.06854	-70.99212	547.01440	-191.95587	84.88921	549.47015	-185.25587	-117.50298	549.55542	690.20520	30.52985	548.13678	698.99158	
4380	43.790	-215.57318	30.48490	-112.43182	209.78212	33.27444	-117.51006	-250.90207	-15.84580	477.40750	176.25111	-10.30193	453.64108	-39.27850	632.70685	-804.67096	-70.03056	547.47351	-191.74561	85.77591	549.85645	-184.90862	-116.67467	549.21790	690.85675	31.55942	547.41473	699.34302	
4381	43.800	-215.51143	30.46959	-112.09901	209.49426	33.31470	-117.22878	-251.01761	-16.26249	477.57346	176.00708	-10.85687	453.74210	-39.38262	633.53979	-804.45410	-69.36552	547.66821	-191.42079	86.43742	550.23938	-184.72998	-115.58334	548.31903	691.31494	32.46815	546.73132	699.68750	
4382	43.810	-215.84564	30.62574	-111.44386	207.80252	32.38910	-117.39122	-251.25764	-16.50125	477.74631	175.47609	-11.49749	453.92874	-37.82412	635.28754	-803.07556	-68.57065	547.42816	-191.00677	87.31783	550.40924	-184.21761	-114.65569	547.04352	691.27594	33.41972	546.06171	699.98926	
4383	43.820	-216.23172	30.85172	-111.28422	207.34987	32.45879	-117.12569	-251.57561	-16.79044	478.03653	175.07172	-11.95784	454.02106	-37.46992	637.49609	-803.13519	-68.01472	547.22650	-190.53894	87.83416	550.32648	-183.92804	-113.69748	546.18274	691.67987	34.51162	545.44910	700.41650	
4384	43.830	-216.47829	30.87049	-111.04314	207.06361	32.46671	-116.98603	-251.84576	-17.20524	478.24115	175.05231	-12.58344	454.33267	-39.07896	640.74670	-805.05273	-67.43295	546.90125	-190.14342	88.44852	550.19666	-183.71304	-112.83311	546.00177	692.49304	35.50733	544.82300	700.74512	
4385	43.840	-216.66159	30.91371	-110.84600	206.69138	32.48012	-116.93538	-252.09457	-17.39057	478.24219	174.75386	-13.13745	454.30026	-38.79283	644.65662	-805.11896	-67.01850	546.69641	-189.78154	88.83392	550.18762	-183.24886	-111.77606	544.35828	692.58533	36.29219	543.86139	700.96399	
4386	43.850	-216.86629	30.93222	-110.70256	206.50653	32.52508	-116.82262	-252.39099	-17.76380	478.34079	174.61557	-13.55094	454.42786	-38.71064	649.18762	-805.11560	-66.47356	546.57050	-189.37286	89.43147	550.14905	-182.75591	-110.69857	543.10767	692.88342	37.16096	542.99115	701.46625	
4387	43.860	-217.34840	31.20612	-110.55668	206.36237	33.22267	-116.51609	-252.71489	-18.20161	478.37784	174.56039	-13.91432	454.62125	-38.34220	654.33997	-805.31909	-66.09739	546.67578	-189.05376	89.69716	550.33966	-182.44804	-109.84975	541.96552	693.26984	38.16087	541.68414	701.74585	
4388	43.870	-217.61229	31.37933	-110.46190	206.33948	32.84586	-116.64742	-253.03450	-18.36920	478.56570	174.34128	-14.22015	454.69144	-37.70643	659.73499	-805.18915	-65.92699	547.01593	-188.56801	90.07238	550.75519	-182.24455	-108.60985	540.44928	693.75580	39.22564	540.46069	702.12341	
4389	43.880	-217.85329	31.58932	-110.40926	206.00401	32.95250	-116.38833	-253.29233	-18.65625	478.47614	173.91304	-14.71371	454.77725	-35.47258	665.88611	-803.59479	-65.33762	547.81317	-188.00514	90.54934	551.41882	-181.94652	-108.39657	539.02411	694.10931	39.82515	538.81921	702.50732	
4390	43.890	-218.38715	31.99960	-110.29626	205.58813	33.09019	-116.06271	-253.58406	-19.07709	478.59790	173.40594	-15.28119	455.06436	-36.39262	671.47125	-804.76849	-65.05164	548.52173	-187.74628	90.76780	552.22638	-181.62262	-107.58302	537.35468	694.55847	40.57221	537.02478	702.82294	
4391	43.900	-218.88219	32.34579	-110.27091	204.63467	32.96914	-116.00988	-254.14511	-19.43309	478.80875	172.70341	-15.66704	455.20724	-35.53843	676.93634	-804.42212	-64.61418	549.73730	-187.32420	91.35618	553.15369	-181.11859	-106.89673	535.34406	694.95361	41.32330	535.13080	703.10510	
4392	43.910	-219.03378	32.46177	-110.24986	203.94722	32.84003	-116.18223	-254.57961	-19.77185	479.07733	172.20474	-16.07057	455.29749	-34.67639	682.07770	-803.91357	-64.21272	550.69025	-186.72223	91.54481	554.15778	-180.87805	-106.46207	533.66211	695.23486	41.46340	533.12775	703.44635	
